<svg xmlns="http://www.w3.org/2000/svg" width="75.987" height="77.372" viewBox="0 0 75.987 77.372">
  <g id="Group_8" data-name="Group 8" transform="translate(-450.552 -244.441)">
    <path id="Path_117" data-name="Path 117" d="M382.664,252.484a39.878,39.878,0,0,1-2.018,12.088,37.851,37.851,0,0,1-5.013,9.9,1.18,1.18,0,0,1-2.024.16c-.728-.761-1.384-1.588-2.1-2.355a1.352,1.352,0,0,1-.05-1.9,31.983,31.983,0,0,0,4.935-12.132,29.164,29.164,0,0,0,.458-7.489,32.448,32.448,0,0,0-11.029-22.439,29.933,29.933,0,0,0-14.465-7.213,40.459,40.459,0,0,0-6.617-.739,30.717,30.717,0,0,0-12.656,2.542,32.774,32.774,0,0,0-18.849,22.2,31.525,31.525,0,0,0-.767,10.081,32.045,32.045,0,0,0,5.366,15.347,1.212,1.212,0,0,1-.149,1.853c-.629.689-1.257,1.423-1.864,2.156a1.227,1.227,0,0,1-2.079,0,36.836,36.836,0,0,1-6.375-14.983c-.237-1.527-.4-3.066-.551-4.6a21.262,21.262,0,0,1-.144-2.757,38.989,38.989,0,0,1,3.16-14.735A38.055,38.055,0,0,1,315.9,227.9a37.5,37.5,0,0,1,9.562-8.018,34.74,34.74,0,0,1,10.345-4.158c1.919-.4,3.86-.645,5.823-.866a30.677,30.677,0,0,1,3.832-.154,37.564,37.564,0,0,1,21.9,7.544,38.282,38.282,0,0,1,11.917,14.889,32.884,32.884,0,0,1,2.785,9.485C382.295,248.552,382.46,250.521,382.664,252.484Z" transform="translate(143.875 29.745)" fill="#e04040"/>
    <path id="Path_118" data-name="Path 118" d="M379.849,267.354a24.219,24.219,0,0,1-1.224,7.323,22.771,22.771,0,0,1-3.038,6,.711.711,0,0,1-1.224.1c-.441-.463-.838-.965-1.268-1.428a.816.816,0,0,1-.033-1.147,19.4,19.4,0,0,0,2.994-7.367,17.649,17.649,0,0,0,.276-4.539,19.648,19.648,0,0,0-6.695-13.6,18.115,18.115,0,0,0-8.768-4.373,24.436,24.436,0,0,0-4-.447,18.71,18.71,0,0,0-7.676,1.539,19.853,19.853,0,0,0-11.432,13.478A19.01,19.01,0,0,0,337.3,269a19.488,19.488,0,0,0,3.248,9.3.728.728,0,0,1-.088,1.1c-.386.424-.761.866-1.13,1.307a.745.745,0,0,1-1.257,0,20.2,20.2,0,0,1-2.459-4.373,20.491,20.491,0,0,1-1.406-4.71c-.143-.926-.243-1.858-.336-2.785a13.283,13.283,0,0,1-.088-1.654,23.646,23.646,0,0,1,1.925-8.934,23.349,23.349,0,0,1,9.458-10.66,21.042,21.042,0,0,1,6.27-2.52c1.163-.243,2.349-.392,3.535-.551a18.071,18.071,0,0,1,2.322-.094,22.188,22.188,0,0,1,8.073,1.654,22.516,22.516,0,0,1,5.195,2.928,22.932,22.932,0,0,1,3.943,3.761,23.312,23.312,0,0,1,3.281,5.255,19.9,19.9,0,0,1,1.687,5.752C379.622,264.994,379.727,266.185,379.849,267.354Z" transform="translate(131.718 16.408)" fill="#ea9b9b"/>
    <circle id="Ellipse_11" data-name="Ellipse 11" cx="14.299" cy="14.299" r="14.299" transform="translate(474.239 268.911)" fill="#e0bdbd"/>
    <path id="Path_119" data-name="Path 119" d="M384.572,311.111,377,318.329V287.74l22.257,20.768-10.765.932c2.046,4.522,4.075,9.011,6.121,13.549l-4.1,1.842Z" transform="translate(112.332 -3.018)" fill="#d50000"/>
  </g>
</svg>
