<svg xmlns="http://www.w3.org/2000/svg" width="569.793" height="422.778" viewBox="0 0 569.793 422.778"><path d="M480.856,723.386H252.785s-4.623-67.805,22.73-68.575,24.271,30.05,58.559-12.329,75.9-40.067,81.289-15.025-10.4,45.075,18.492,38.911S504.356,676.384,480.856,723.386Z" transform="translate(-169.275 -305.526)" fill="#d90000"/><path d="M442.3,723.113l-.77-.031c1.8-44.642,11.145-73.326,18.672-89.526,8.173-17.591,16.048-24.712,16.127-24.782l.512.576c-.078.069-7.861,7.12-15.969,24.592C453.386,650.074,444.087,678.639,442.3,723.113Z" transform="translate(-248.604 -305.239)" fill="#f2f2f2"/><path d="M584.55,769.591l-.74-.215c8.907-30.571,29.881-49.873,30.092-50.065l.518.57C614.211,720.071,593.394,739.237,584.55,769.591Z" transform="translate(-308.311 -351.625)" fill="#f2f2f2"/><path d="M300.271,757.339l-.763-.106a83.918,83.918,0,0,0-7.548-49.05c-5.534-11.2-11.849-17.322-11.912-17.383l.533-.556a68.383,68.383,0,0,1,12.07,17.6A84.686,84.686,0,0,1,300.271,757.339Z" transform="translate(-180.839 -339.427)" fill="#f2f2f2"/><rect width="1.161" height="107.367" transform="translate(443.272 15.089)" fill="#5c0002"/><path d="M807.567,752.193c-3.3,12.2-14.6,19.75-14.6,19.75s-5.952-12.221-2.652-24.417,14.6-19.75,14.6-19.75S810.866,740,807.567,752.193Z" transform="translate(-394.55 -355.176)" fill="#d90000"/><path d="M768.323,752.193c3.3,12.2,14.6,19.75,14.6,19.75s5.952-12.221,2.652-24.417-14.6-19.75-14.6-19.75S765.023,740,768.323,752.193Z" transform="translate(-385.321 -355.176)" fill="#d90000"/><path d="M761.036,758.423c9.054,8.813,10.159,22.361,10.159,22.361s-13.573-.741-22.626-9.554-10.159-22.361-10.159-22.361S751.983,749.61,761.036,758.423Z" transform="translate(-373.187 -364.028)" fill="#5c0002"/><path d="M805.062,758.423c-9.054,8.813-10.159,22.361-10.159,22.361s13.573-.741,22.626-9.554,10.159-22.361,10.159-22.361S814.116,749.61,805.062,758.423Z" transform="translate(-396.894 -364.028)" fill="#5c0002"/><ellipse cx="242.3" cy="5.628" rx="242.3" ry="5.628" transform="translate(0 411.522)" fill="#5c0002"/><path d="M330.926,550.663,327.71,578.8s-11.255,27.335-12.864,47.434l-1.608,22.511h10.452s13.668-32.159,14.471-41l19.3-58.69Z" transform="translate(-194.768 -280.178)" fill="#a0616a"/><path d="M401.577,550.663,398.361,578.8s-11.256,27.335-12.864,47.434l-1.608,22.511h10.452s13.668-32.159,14.471-41l19.3-58.69Z" transform="translate(-224.416 -280.178)" fill="#a0616a"/><path d="M429.6,436.556l8.844,22.511s-.8,19.3,9.648,17.687-1.608-20.9-1.608-20.9l-6.432-23.315S432.016,430.928,429.6,436.556Z" transform="translate(-243.599 -231.193)" fill="#a0616a"/><circle cx="14.472" cy="14.472" r="14.472" transform="translate(156.66 104.465)" fill="#a0616a"/><path d="M379.254,298.316s-4.824,16.079-8.04,16.079,21.707,9.648,21.707,9.648-6.432-6.432,0-18.491Z" transform="translate(-218.976 -174.958)" fill="#a0616a"/><path d="M343.839,434.781l-20.9,61.1s7.236,4.02,19.3,4.02,65.925-1.608,66.73-6.432-16.883-58.69-16.883-58.69l-3.216-20.1-39.395,10.451Z" transform="translate(-198.837 -223.79)" fill="#5c0002"/><path d="M320.633,719.447H306.161L303.75,729.9s-4.824,3.216-3.216,10.452.8,22.511.8,22.511l16.079,10.452s4.824-5.628,1.608-15.275Z" transform="translate(-189.299 -351.682)" fill="#5c0002"/><path d="M391.283,719.447H376.811L374.4,729.9s-4.824,3.216-3.216,10.452.8,22.511.8,22.511l16.079,10.452s4.824-5.628,1.608-15.275Z" transform="translate(-218.946 -351.682)" fill="#5c0002"/><path d="M365.413,322.411s11.148,2.96,14.418,6.3l5.681,3.344,7.236,15.275s5.628,2.412,5.628,12.864,8.04,28.139,8.04,28.139,5.628,4.824,1.608,7.236a19.371,19.371,0,0,1-8.844,2.412s4.02-15.275-4.02-16.079-12.06-1.608-12.864,0-22.511,24.923-31.355,22.511-4.02-26.531-4.02-26.531l7.236-56.278s5.628-.8,8.844,0S365.413,322.411,365.413,322.411Z" transform="translate(-208.352 -184.582)" fill="#d0cde1"/><path d="M332.633,436.556l8.844,22.511s-.8,19.3,9.648,17.687-1.608-20.9-1.608-20.9l-6.432-23.315S335.045,430.928,332.633,436.556Z" transform="translate(-202.907 -231.193)" fill="#a0616a"/><path d="M344,321.414l-1.608-.8s-4.824-4.824-10.452,1.608-11.256,40.2-11.256,40.2v10.452s-6.432,8.844-.8,13.668,6.432,5.628,6.432,5.628,5.628-8.04,12.06-4.02l.8-3.216a9.949,9.949,0,0,0,1.608-2.412c.8-1.608,2.412.8,1.608-1.608s0-3.216,0-4.02.8-4.824.8-4.824l-.8-24.923Z" transform="translate(-196.587 -183.585)" fill="#d0cde1"/><path d="M386.609,264.74s11.756-25.632-18.968-25.6c0,0-18.85-9.9-33.2,13.062l-14.813,24.146,3.785-.752.48,3.768,4.829,2.963,3.632-3.754-.6,5.746,41.61,17.671s-15.687-17.372-9.636-37.854l2.457,5.014Z" transform="translate(-197.447 -149.233)" fill="#2f2e41"/><ellipse cx="2.031" cy="4.063" rx="2.031" ry="4.063" transform="translate(161.798 118.974)" fill="#a0616a"/><path d="M714.54,15.089V0h-169V323.841h-9.75v89.375h32.5V323.841h-9.75V15.089Z" transform="translate(-224.839)" fill="#5c0002"/><ellipse cx="45.848" cy="8.125" rx="45.848" ry="8.125" transform="translate(398.004 6.964)" fill="#d90000"/><rect width="186.876" height="102.143" transform="translate(350.415 120.134)" fill="#d90000"/><rect width="128.84" height="63.935" transform="translate(366.665 145.575)" fill="#f2f2f2"/><path d="M895.426,391.53H739.89V313.762H895.426ZM741.051,390.37H894.266V314.923H741.051Z" transform="translate(-373.808 -181.44)" fill="#5c0002"/><rect width="83.536" height="1.161" transform="translate(389.317 164.774)" fill="#d90000"/><rect width="83.536" height="1.161" transform="translate(389.317 176.962)" fill="#d90000"/><rect width="83.536" height="1.161" transform="translate(389.317 189.149)" fill="#d90000"/><circle cx="26.697" cy="26.697" r="26.697" transform="translate(507.692 88.795)" fill="#5c0002"/><path d="M1019.938,267.2l-13.36-13.36a2.322,2.322,0,0,1,3.283-3.283l9.854,9.855,31.446-35.86a2.321,2.321,0,0,1,3.491,3.061Z" transform="translate(-485.436 -143.672)" fill="#d90000"/></svg>