<svg xmlns="http://www.w3.org/2000/svg" width="584.312" height="439.168" viewBox="0 0 584.312 439.168">
  <g id="Group_1" data-name="Group 1" transform="translate(0.003 0)">
    <circle id="Ellipse_1" data-name="Ellipse 1" cx="14.001" cy="14.001" r="14.001" transform="translate(479.153 140.841)" fill="#b9121b" opacity="0.4"/>
    <circle id="Ellipse_2" data-name="Ellipse 2" cx="19.959" cy="19.959" r="19.959" transform="translate(177.999 51.898)" fill="#b9121b" opacity="0.4"/>
    <circle id="Ellipse_3" data-name="Ellipse 3" cx="14.001" cy="14.001" r="14.001" transform="translate(147.018 67.388)" fill="#b9121b" opacity="0.4"/>
    <path id="Path_1" data-name="Path 1" d="M926.564,585.784C915.5,597.9,915.1,615.538,915.1,615.538s17.535-1.994,28.6-14.105,11.464-29.755,11.464-29.755S937.627,573.672,926.564,585.784Z" transform="translate(-421.684 -274.376)" fill="#3f3d56"/>
    <path id="Path_2" data-name="Path 2" d="M929.548,581.432c-3.347,16.058-17.419,26.708-17.419,26.708s-8.644-15.385-5.3-31.444,17.419-26.708,17.419-26.708S932.9,565.375,929.548,581.432Z" transform="translate(-418.419 -266.54)" fill="#ff5252"/>
    <path id="Path_3" data-name="Path 3" d="M557,233.581v191.43l-63.81,52.713H166.746V277.046L262,233.581Z" transform="translate(-60.243 -84.388)" fill="#3f3d56"/>
    <path id="Path_4" data-name="Path 4" d="M557,233.581v.767L534.1,249.681l-40.9,27.365H166.746L262,233.581Z" transform="translate(-60.243 -84.388)" opacity="0.1"/>
    <path id="Path_5" data-name="Path 5" d="M741.653,233.581v191.43l-63.81,52.713.463-201.14,40.44-26.9,22.537-16.1Z" transform="translate(-244.892 -84.388)" opacity="0.1"/>
    <path id="Path_6" data-name="Path 6" d="M530.631,270.137H331.8l14.8-8.323H537.105Z" transform="translate(-119.875 -94.588)" fill="#2f2e41"/>
    <path id="Path_7" data-name="Path 7" d="M1033.142,738.332s3.854,16.119.35,16.82-20.674.475-24.879,1.175-12.965-.475-12.965-3.628,9.111-5.256,9.111-5.256,12.965-7.008,13.316-7.359S1033.142,738.332,1033.142,738.332Z" transform="translate(-450.784 -334.584)" fill="#2f2e41"/>
    <path id="Path_8" data-name="Path 8" d="M1038.311,588.666s-1.051,11.914-1.051,12.965,1.051,17.521,0,18.221.7,5.607.7,7.359,5.607,30.836,4.2,42.05,2.1,10.162,1.051,11.213-1.051,1.051-1.051,3.154-11.213,3.855-11.213,3.855l-12.263-77.441L1025,586.914Z" transform="translate(-459.109 -279.88)" fill="#575a89"/>
    <path id="Path_9" data-name="Path 9" d="M1038.311,588.666s-1.051,11.914-1.051,12.965,1.051,17.521,0,18.221.7,5.607.7,7.359,5.607,30.836,4.2,42.05,2.1,10.162,1.051,11.213-1.051,1.051-1.051,3.154-11.213,3.855-11.213,3.855l-12.263-77.441L1025,586.914Z" transform="translate(-459.109 -279.88)" fill="#5c0002" opacity="0.2"/>
    <path id="Path_10" data-name="Path 10" d="M1025.264,745s3.5,12.615,0,13.316-20.674-.8-24.879-.1-12.965.8-12.965-2.351,9.111-5.256,9.111-5.256,12.965-7.008,13.316-7.359S1025.264,745,1025.264,745Z" transform="translate(-447.812 -336.346)" fill="#2f2e41"/>
    <path id="Path_11" data-name="Path 11" d="M1034.735,567.713s4.2,10.162-.7,15.418-10.512,15.768-10.512,16.469,9.812,70.433,8.41,74.988-1.051,7.359-.7,8.06-3.5,4.555-7.709,4.555-10.512-3.154-11.213-5.957,1.051-26.982.7-31.537a52.8,52.8,0,0,0-2.8-12.615c-.7-1.4-4.555-2.8-5.256-7.008s-6.307-57.818-4.555-59.57S1034.735,567.713,1034.735,567.713Z" transform="translate(-452.377 -272.943)" fill="#5c0002"/>
    <circle id="Ellipse_4" data-name="Ellipse 4" cx="11.914" cy="11.914" r="11.914" transform="translate(543.814 190.346)" fill="#ffb9b9"/>
    <path id="Path_12" data-name="Path 12" d="M1015.06,431.284s-2.453,12.965-.7,14.367-13.316,3.5-13.316,3.5-1.752-17.17-2.1-18.922S1015.06,431.284,1015.06,431.284Z" transform="translate(-451.972 -223.066)" fill="#ffb9b9"/>
    <path id="Path_13" data-name="Path 13" d="M995.168,453.227s4.2-12.264,21.375-8.76c0,0,3.154,1.051,2.1,2.1s-2.1,1.051-.7,2.1,3.154,0,2.1,1.051,9.461,7.359,8.76,19.273,2.453,28.734,0,31.537,1.752,15.068,1.051,17.521,4.2,5.607,2.1,6.658-39.947,7.359-41,0-.35-2.1-1.4-3.855-1.4-4.906-.7-8.76,2.453-13.316,1.752-16.82,0-32.939,2.1-36.443A18.182,18.182,0,0,0,995.168,453.227Z" transform="translate(-448.201 -228.189)" fill="#d90000"/>
    <path id="Path_14" data-name="Path 14" d="M1006.1,592s5.256,19.974-1.4,19.974-6.307-20.674-6.307-20.674Z" transform="translate(-451.774 -281.466)" fill="#ffb9b9"/>
    <path id="Path_15" data-name="Path 15" d="M1004.43,413.537c0,1.016,1.472,1.661,3.753,1.808h0a19.093,19.093,0,0,0,2.9-.056c1.458-.133,2.06,1.237,2.309,3.045.406,2.982-.161,7.162.494,7.818.9.9,7.5,0,9.556-2.053a1.9,1.9,0,0,0,.606-1.1,5.856,5.856,0,0,1,1.759-3.269c1.216-1.328,2.947-2.8,4.9-5.141,3.5-4.2,0-4.555-1.051-7.709s-2.8-4.2-2.8-6.307-8.059-3.855-14.717-3.5-5.256,8.76-5.256,8.76-.4,1.016-.869,2.327a36.538,36.538,0,0,0-1.556,5.053,2.523,2.523,0,0,0-.028.329Z" transform="translate(-453.957 -211.276)" fill="#2f2e41"/>
    <path id="Path_16" data-name="Path 16" d="M1003.742,466.765s11.914-.7,12.965,16.82.7,33.99.7,34.34-4.906,33.64-9.461,33.64-8.06-.7-9.111-2.453,2.8-26.982,2.8-26.982,1.752-26.631-1.051-35.041S997.437,467.816,1003.742,466.765Z" transform="translate(-451.871 -236.471)" opacity="0.1"/>
    <path id="Path_17" data-name="Path 17" d="M1001,464.022s11.914-.7,12.965,16.82.7,33.99.7,34.34-4.906,33.64-9.461,33.64-8.059-.7-9.111-2.453,2.8-26.982,2.8-26.982,1.752-26.631-1.051-35.041S994.7,465.073,1001,464.022Z" transform="translate(-450.881 -235.48)" fill="#d90000"/>
    <path id="Path_18" data-name="Path 18" d="M689.02,189.636s-5.192-14.711-8.942-10.1,5.769,12.4,5.769,12.4Z" transform="translate(-336.459 -132.381)" fill="#a0616a"/>
    <path id="Path_19" data-name="Path 19" d="M716.155,173.273l-3.123,1.158s-1.492,6.631-.915,7.785.865.288,0,2.6-3.461,8.365-3.75,9.231-16.73-5.481-16.73-8.654c0,0-3.461,4.038-5.192,4.9,0,0,19.038,13.846,21.634,15.577s4.038.865,6.346-1.154,12.115-18.75,12.115-18.75Z" transform="translate(-339.075 -130.44)" fill="#ef5350"/>
    <path id="Path_20" data-name="Path 20" d="M703.054,332.549s.288,3.173.865,3.461,4.9,7.5,0,8.942-7.788.865-8.942,1.442-21.346,1.731-21.634-1.442,9.807-3.75,9.807-3.75,9.231-6.057,10.673-9.23S703.054,332.549,703.054,332.549Z" transform="translate(-334.34 -187.314)" fill="#2f2e41"/>
    <path id="Path_21" data-name="Path 21" d="M800.3,342.628s6.923,11.827,5.192,13.269-18.586,6.7-21.057,6.923c-3.173.288-5.481-2.308-2.885-3.75s8.077-7.5,8.077-9.519v-5.192Z" transform="translate(-373.031 -191.625)" fill="#2f2e41"/>
    <path id="Path_22" data-name="Path 22" d="M778.854,221.6s6.058,7.5-3.461,19.615L759.528,261.4s9.808,15.577,10.1,23.653,2.308,6.346,2.885,9.807,3.173,1.731,1.154,4.327-9.519,4.9-11.827,2.885a7.151,7.151,0,0,1-2.308-5.769c0-1.154-4.038-7.788-4.327-9.807s-10.961-18.461-10.961-18.461-3.462-9.807.577-15.288a57.942,57.942,0,0,0,6.707-13.254s-11.9,14.408-20.264,17.869c0,0-3.173.577-2.6,2.019s0,2.308-.865,3.75-6.923,18.173-8.942,22.5-1.154,6.923-3.461,8.365-12.692.288-12.692-1.154,1.442-5.192,2.308-7.211,7.788-25.384,7.211-29.422.289-9.519,4.615-11.827,26.249-21.057,27.4-21.057S778.854,221.6,778.854,221.6Z" transform="translate(-344.949 -147.898)" fill="#2f2e41"/>
    <circle id="Ellipse_5" data-name="Ellipse 5" cx="12.115" cy="12.115" r="12.115" transform="translate(363.81 4.18)" fill="#a0616a"/>
    <path id="Path_23" data-name="Path 23" d="M739.847,133.531s3.75,6.634,8.365,7.5S736.1,155.165,736.1,155.165s-4.038-12.692-7.5-13.269S739.847,133.531,739.847,133.531Z" transform="translate(-354.114 -116.082)" fill="#a0616a"/>
    <path id="Path_24" data-name="Path 24" d="M727.992,164c0,3.75,11.25,14.423,11.25,14.423l10.673,8.942s.288,3.173,1.442,3.461,2.6.288,1.442,2.019-4.038,5.481-1.442,6.058a21.2,21.2,0,0,0,2.362.225c.692.04,1.506.078,2.42.113,2.135.075,4.806.124,7.7.1q1.233,0,2.51-.029c10.907-.216,23.541-1.471,22.508-5.6-1.731-6.923-.577-9.231-4.327-12.98S774.722,164,774.722,164s-12.115-20.48-22.211-20.48l-2.1-.551a4.8,4.8,0,0,0-5.241,2.013c-2.025,3.084-5.218,7.716-7.084,9.21-2.885,2.308-3.335.652-3.335.652S727.992,160.247,727.992,164Z" transform="translate(-354.086 -119.434)" fill="#ef5350"/>
    <path id="Path_25" data-name="Path 25" d="M765.43,244.628s-8.365,12.98-3.173,15.288,8.077-13.557,8.077-13.557Z" transform="translate(-365.851 -156.219)" fill="#a0616a"/>
    <path id="Path_26" data-name="Path 26" d="M731.717,121.139c-.465-.059-.612-.645-.69-1.107-.419-2.474-2.263-4.821-4.741-5.22a6.712,6.712,0,0,0-2.825.228,10.719,10.719,0,0,0-3.624,1.784,5.978,5.978,0,0,1-1.811,1.137c-.455.134-2.385.992-2.836,1.137-.992.319-1.812,1.357-2.833,1.152-.977-.2-1.348-1.376-1.505-2.361-.358-2.242.926-5.588,2.2-7.466a7.918,7.918,0,0,1,4.245-2.779,30.5,30.5,0,0,1,5.887-1.17,19.038,19.038,0,0,1,8.068.346c2.583.833,4.934,2.871,5.416,5.541.1.556.119,1.126.242,1.678a24.947,24.947,0,0,0,1.71,3.754,7.229,7.229,0,0,1-.221,5.861c-.719,1.446-1.97,2.836-1.7,4.429l-2.226-1.755a1.617,1.617,0,0,1-.743-1.892l.324-2.787a2.453,2.453,0,0,0-.144-1.507C732.923,118.413,732.493,121.237,731.717,121.139Z" transform="translate(-347.871 -106.213)" fill="#2f2e41"/>
    <path id="Path_27" data-name="Path 27" d="M771.021,190.462l-2.717,11.3c2.74.1,6.366.15,10.208.075.969-2.908,1.9-5.939,2.6-8.778,2.6-10.384-1.731-26.249-4.038-33.749S769,149.789,769,149.789a26.307,26.307,0,0,0-6.634,3.461C758.617,155.847,771.021,190.462,771.021,190.462Z" transform="translate(-366.25 -121.956)" opacity="0.1"/>
    <path id="Path_28" data-name="Path 28" d="M770.349,193.158l-2.83,11.763c.692.04,1.506.078,2.42.112,2.135.075,4.806.124,7.7.1,1.041-3.089,2.048-6.349,2.807-9.383,2.6-10.384-1.731-26.249-4.038-33.749s-7.356.721-7.356.721,2.019-4.9-1.731-2.308S770.349,193.158,770.349,193.158Z" transform="translate(-367.886 -125.229)" opacity="0.1"/>
    <path id="Path_29" data-name="Path 29" d="M767.195,148.886s5.769,2.019,8.077,9.519,6.634,23.365,4.038,33.749-8.077,23.365-8.077,23.365-5.481-4.038-7.5-3.173l5.481-22.788s-12.4-34.615-8.654-37.211a26.306,26.306,0,0,1,6.634-3.461Z" transform="translate(-365.597 -121.63)" fill="#ef5350"/>
    <path id="Path_30" data-name="Path 30" d="M514.868,175.132,435.062,8.828,301.62,72.864,350.7,175.132Z" transform="translate(-108.97 -3.189)" fill="#f2f2f2"/>
    <rect id="Rectangle_2" data-name="Rectangle 2" width="78.614" height="4.88" transform="translate(228.21 104.93) rotate(-25.635)" fill="#3f3d56"/>
    <rect id="Rectangle_3" data-name="Rectangle 3" width="78.614" height="4.88" transform="translate(246.976 144.035) rotate(-25.635)" fill="#3f3d56"/>
    <rect id="Rectangle_4" data-name="Rectangle 4" width="19.518" height="19.518" transform="translate(313.146 56.354) rotate(-25.635)" fill="#3f3d56"/>
    <rect id="Rectangle_5" data-name="Rectangle 5" width="19.518" height="19.518" transform="translate(331.911 95.458) rotate(-25.635)" fill="#3f3d56"/>
    <path id="Path_31" data-name="Path 31" d="M509.337,55.924,502.09,76.543l-9.769-3.434-1.337,3.8,13.56,4.766,8.6-24.418Z" transform="translate(-177.384 -20.204)" fill="#ef5350"/>
    <path id="Path_32" data-name="Path 32" d="M538.716,117.146l-7.247,20.619-9.769-3.433-1.337,3.8,13.559,4.765,8.6-24.418Z" transform="translate(-187.998 -42.323)" fill="#ef5350"/>
    <g id="woman" transform="translate(-0.003 190.158)">
      <rect id="Rectangle_6" data-name="Rectangle 6" width="36.869" height="36.869" transform="translate(43.758 165.489) rotate(167.942)" fill="#f2f2f2"/>
      <path id="right_hand" data-name="right hand" d="M204.027,591.492s-13.243,9.46-8.829,13.243,13.243-11.352,13.243-11.352Z" transform="translate(-161.269 -471.692)" fill="#ffb9b9"/>
      <path id="left_leg" data-name="left leg" d="M293.588,613.651s-2.523,31.532-3.153,35.946-1.261,44.145-2.523,48.559-2.523,15.135-2.523,15.135h-7.567s.631-19.55-1.261-27.117S275.3,657.8,275.3,657.8s-3.784-37.208-1.892-42.253S293.588,613.651,293.588,613.651Z" transform="translate(-189.659 -479.346)" fill="#ffb9b9"/>
      <path id="left_shoe" data-name="left shoe" d="M284.868,767.239s3.153,1.892,3.153,3.153-.631,4.414,0,5.676,5.045,6.306,2.523,7.568-13.874,0-13.874,0,.631-8.829,1.261-9.46-.631-6.937-.631-6.937Z" transform="translate(-191.029 -535.186)" fill="#2f2e41"/>
      <path id="right_leg" data-name="right leg" d="M227.936,612.921s-.8,31.622-.637,36.079-3.379,44.033-2.588,48.556.92,15.317.92,15.317l7.526.794s1.425-19.508,4.1-26.835,4.233-28.09,4.233-28.09,7.668-36.6,6.317-41.821S227.936,612.921,227.936,612.921Z" transform="translate(-172.216 -479.39)" fill="#ffb9b9"/>
      <path id="right_shoe" data-name="right shoe" d="M224.942,766.842s-3.334,1.55-3.467,2.8.164,4.456-.6,5.644-5.679,5.742-3.3,7.261,13.8,1.456,13.8,1.456.3-8.846-.261-9.54,1.355-6.833,1.355-6.833Z" transform="translate(-169.448 -535.042)" fill="#2f2e41"/>
      <path id="pants" d="M267.573,540.15s5.045.631,6.937,11.352,8.829,37.838,3.153,39.73-22.7,5.676-23.334,4.414-1.892-4.414-1.892-4.414,1.892,5.676-.631,5.676-27.117-3.784-26.487-5.676,1.892-15.766,1.892-15.766,3.784-23.333,7.568-27.117a10.342,10.342,0,0,0,3.153-8.2Z" transform="translate(-172.473 -453.143)" fill="#5c0002"/>
      <path id="left_hand" data-name="left hand" d="M300.813,531.866s-8.2-1.892-9.46.631,3.153,6.307,5.045,6.307,5.045-1.892,5.045-1.892Z" transform="translate(-196.254 -449.904)" fill="#ffb9b9"/>
      <circle id="head" cx="11.351" cy="11.351" r="11.351" transform="translate(76.181 5.654)" fill="#ffb9b9"/>
      <path id="neck" d="M264.9,440.055s-1.892,8.829-.631,8.829-9.46,5.676-9.46,5.676l-8.2-1.261-2.523-3.784s13.243-8.829,13.243-13.874S264.9,440.055,264.9,440.055Z" transform="translate(-179.257 -414.851)" fill="#ffb9b9"/>
      <path id="upper_body" data-name="upper body" d="M251.731,456.5a9.244,9.244,0,0,1,2.523-1.261H259.3c.631,0,8.829,1.892,8.829,1.892l5.045,28.379s-8.829,14.5-2.523,25.856c0,0-1.892-1.261-10.721-.631s-24.595,2.523-25.226,2.523-.631-5.045,0-6.306-.631-.631-.631-3.784-1.892-8.829-1.892-8.829l-8.829-32.163S234.7,455.869,236.6,456.5s7.568,2.523,8.829,1.892A58.347,58.347,0,0,1,251.731,456.5Z" transform="translate(-171.767 -422.467)" fill="#d90000"/>
      <path id="left_arm" data-name="left arm" d="M290.492,458.809l1.892-.631s3.784-.631,8.2,3.153,20.811,15.135,20.811,15.135,6.306,5.045,4.414,10.721-5.045,19.55-14.5,18.919c0,0-5.676,7.568-8.829,6.306s-5.676-6.306-3.784-6.937,6.937-6.937,6.937-6.937l-6.306-11.982h-1.892l-6.937-3.784Z" transform="translate(-196.023 -423.514)" fill="#d90000"/>
      <path id="right_arm" data-name="right arm" d="M222.239,465.112l-5.045.631s-4.414,1.892-3.784,10.09-3.784,45.406-1.892,49.82c0,0-6.306,21.442-5.045,22.072s8.829,4.414,8.2,1.892,6.937-20.18,6.937-20.18,8.829-9.46,5.045-22.7V496.013Z" transform="translate(-165.608 -426.034)" fill="#d90000"/>
      <path id="hair" d="M276.156,431.91l-8.017,1.747-1.03-3.948.4,4.086-12.934,2.818L254,434.433l.219,2.256-8.284,1.8-1.772-17.01c-1.822-6.98,4.827-14.42,11.807-16.242l3.1-.808c5.127-1.338,14.446-.121,15.784,5.005C272.511,418.377,268.518,428.176,276.156,431.91Z" transform="translate(-179.176 -403.93)" fill="#2f2e41"/>
    </g>
  </g>
</svg>
