<svg xmlns="http://www.w3.org/2000/svg" xmlns:xlink="http://www.w3.org/1999/xlink" width="659.169" height="455.042" viewBox="0 0 659.169 455.042">
  <defs>
    <linearGradient id="linear-gradient" y1="0.5" x2="1" y2="0.5" gradientUnits="objectBoundingBox">
      <stop offset="0" stop-color="gray" stop-opacity="0.251"/>
      <stop offset="0.54" stop-color="gray" stop-opacity="0.122"/>
      <stop offset="1" stop-color="gray" stop-opacity="0.102"/>
    </linearGradient>
  </defs>
  <g id="Group_6" data-name="Group 6" transform="translate(0 0.006)">
    <path id="Path_36" data-name="Path 36" d="M389.754,109.413c-42.252.057-82.921-11.921-121.821-25.227s-77.5-28.205-118.966-34.519c-26.668-4.058-56.993-3.685-77.839,11.05-20.066,14.176-25.877,37.639-28.68,59.316-2.108,16.307-3.081,33.423,4.816,48.339,5.483,10.355,14.866,18.89,21.479,28.759,23.084,34.333,9.2,78.19-13.232,113.319-10.519,16.482-22.841,32.281-30.794,49.707s-11.214,37.187-3.1,54.387c8.038,17.048,26.193,29.421,45.677,37.871,39.567,17.195,85.634,20.88,130.463,22.3,99.234,3.148,198.659-3.273,297.819-9.694,36.7-2.374,73.555-4.765,109.493-11.644,19.953-3.815,40.5-9.479,54.647-21.892C677.67,415.728,681.344,390,668.276,371.5c-21.914-31.02-79.7-36.871-95.413-70.435-8.665-18.478-1.193-39.669,9.813-57.479,23.6-38.216,64.234-72.447,64.918-115.19.469-29.353-20.66-57.988-52.217-70.745C562.3,44.292,517.2,47.729,494.024,72.633,470.193,98.289,427.06,109.374,389.754,109.413Z" transform="translate(-16.91 -47.46)" fill="#d90000" opacity="0.1"/>
    <path id="Path_37" data-name="Path 37" d="M998.8,690.9s-6.947-4.584-13.831-1.323c0,0,2.12,4.081,10.836,3.7Z" transform="translate(-437.784 -326.121)" fill="#d90000"/>
    <path id="Path_38" data-name="Path 38" d="M1007.458,693.25s2.114,8.049-3.188,13.526c0,0-3.188-3.318,0-11.446Z" transform="translate(-445.558 -328.226)" fill="#d90000"/>
    <path id="Path_39" data-name="Path 39" d="M1013.994,675.707s-.515-6.845-15.974-4.573c0,0-.074,4.415,5.353,6.506S1011.286,677.968,1013.994,675.707Z" transform="translate(-443.457 -318.41)" fill="#d90000"/>
    <path id="Path_40" data-name="Path 40" d="M1024.514,679.5s6.534,2.1.707,16.6c0,0-4.313-.961-5.087-6.732S1021.654,681.6,1024.514,679.5Z" transform="translate(-453.005 -322.248)" fill="#d90000"/>
    <path id="Path_41" data-name="Path 41" d="M1031.952,654.478s.887-11.265-14.911-10.112c0,0-1.13,10.174,12.125,12.82Z" transform="translate(-451.716 -306.937)" fill="#d90000"/>
    <path id="Path_42" data-name="Path 42" d="M1048.1,632.38s-2.165-12.769-17.958-8.965c0,0-.057,11.039,15.38,12.006Z" transform="translate(-457.422 -297.557)" fill="#d90000"/>
    <path id="Path_43" data-name="Path 43" d="M1060.585,609.322s-3.629-12.435-19.275-8.716c0,0,3.725,11.186,18.235,11.011Z" transform="translate(-462.278 -287.646)" fill="#d90000"/>
    <path id="Path_44" data-name="Path 44" d="M1073.883,586.33s-3.544-12.9-18.653-9.044c0,0,5.042,12.26,17.652,11.226Z" transform="translate(-468.33 -277.496)" fill="#d90000"/>
    <path id="Path_45" data-name="Path 45" d="M1083.56,562.42s-2.724-15.781-16.81-12.288c0,0,4.092,14.357,15.776,14.589Z" transform="translate(-473.338 -265.785)" fill="#d90000"/>
    <path id="Path_46" data-name="Path 46" d="M1090.762,536.852s-3.272-15.906-17.522-11.3c0,0,5.585,15.035,16.51,13.481Z" transform="translate(-476.16 -254.953)" fill="#d90000"/>
    <path id="Path_47" data-name="Path 47" d="M1096.531,510.016s-5.195-15.912-16.211-15.482c0,0,5.308,16.8,15.29,18.653Z" transform="translate(-479.238 -241.828)" fill="#d90000"/>
    <path id="Path_48" data-name="Path 48" d="M1100.837,484.593s-5.652-19.15-14.617-17.675c0,0,3.912,14.64,14.3,20.659Z" transform="translate(-481.803 -229.791)" fill="#d90000"/>
    <path id="Path_49" data-name="Path 49" d="M1102.951,457.235s-5.3-15.957-14.131-16.6c0,0,3.606,15.7,13.956,20.744Z" transform="translate(-482.933 -218.401)" fill="#d90000"/>
    <path id="Path_50" data-name="Path 50" d="M1106.145,431.075s-6.607-15.974-12.435-16.335c0,0,2.871,15.731,11.87,18.958Z" transform="translate(-485.059 -207.141)" fill="#d90000"/>
    <path id="Path_51" data-name="Path 51" d="M1109.383,404.669s-4.064-17.347-9.9-18.789c0,0,.8,14.193,9.315,20.089Z" transform="translate(-487.568 -194.594)" fill="#d90000"/>
    <path id="Path_52" data-name="Path 52" d="M1113.974,374.74s-4.273-13.831-9-15.94c0,0,.933,16.307,7.914,19.32Z" transform="translate(-489.954 -182.821)" fill="#d90000"/>
    <path id="Path_53" data-name="Path 53" d="M1121.394,347.244l.859-24.384s-8.846,18.382-1.5,28.663Z" transform="translate(-495.549 -167.195)" fill="#d90000"/>
    <path id="Path_54" data-name="Path 54" d="M1133.563,308.63s6.37-17.8,7.913-18.8c0,0-12.492,11.554-11.271,26.414Z" transform="translate(-500.89 -152.835)" fill="#d90000"/>
    <path id="Path_55" data-name="Path 55" d="M1042.23,662.143s11.2-1.464,10.87,14.368c0,0-10.123,1.651-13.43-11.446Z" transform="translate(-461.565 -314.686)" fill="#d90000"/>
    <path id="Path_56" data-name="Path 56" d="M1060.863,639.06s12.944-.04,11.87,16.166c0,0-10.87,1.944-14.453-13.1Z" transform="translate(-469.656 -304.666)" fill="#d90000"/>
    <path id="Path_57" data-name="Path 57" d="M1074.83,617.6s11.751-5.511,19.269,8.716c0,0-10.853,4.59-20.309-6.415Z" transform="translate(-476.399 -294.881)" fill="#d90000"/>
    <path id="Path_58" data-name="Path 58" d="M1087.925,593.106s12.034-5.861,19.1,8.032c0,0-12.537,4.318-20.094-5.833Z" transform="translate(-482.111 -284.154)" fill="#d90000"/>
    <path id="Path_59" data-name="Path 59" d="M1095.812,569.117s11.582-11.062,20.823.124c0,0-11.831,9.106-21.355,2.34Z" transform="translate(-485.742 -272.136)" fill="#d90000"/>
    <path id="Path_60" data-name="Path 60" d="M1102.758,541.771s11.65-11.3,20.818.52c0,0-13.074,9.287-21.236,1.854Z" transform="translate(-488.811 -260.25)" fill="#d90000"/>
    <path id="Path_61" data-name="Path 61" d="M1106.93,512.334s8.976-14.131,19.546-10.977c0,0-9.315,14.962-19.444,14.295Z" transform="translate(-490.807 -244.599)" fill="#d90000"/>
    <path id="Path_62" data-name="Path 62" d="M1111.432,486.508s9.044-17.794,17.6-14.7c0,0-6.523,13.679-17.833,17.7Z" transform="translate(-492.663 -231.796)" fill="#d90000"/>
    <path id="Path_63" data-name="Path 63" d="M1112.024,458.792s9.3-14.007,18.008-12.294c0,0-7.6,14.2-18.913,16.347Z" transform="translate(-492.628 -220.885)" fill="#d90000"/>
    <path id="Path_64" data-name="Path 64" d="M1114,430.917s7.207-15.719,13.063-15.827c0,0-3.459,15.606-12.577,18.495Z" transform="translate(-493.88 -207.293)" fill="#d90000"/>
    <path id="Path_65" data-name="Path 65" d="M1116.5,406.251s8.01-15.917,14.029-15.951c0,0-4.1,13.611-13.764,17.347Z" transform="translate(-494.967 -196.516)" fill="#d90000"/>
    <path id="Path_66" data-name="Path 66" d="M1118.63,377.482s5.991-13.17,10.954-14.662c0,0-3,16.053-10.293,18.156Z" transform="translate(-495.893 -184.568)" fill="#d90000"/>
    <path id="Path_67" data-name="Path 67" d="M1123.886,349.46l13.39-20.4s-3.431,20.123-15.346,24.305Z" transform="translate(-497.328 -169.891)" fill="#d90000"/>
    <path id="Path_68" data-name="Path 68" d="M1136.663,316.4s15.561-10.74,16.126-12.475c0,0-7.913,15.041-22.61,17.7Z" transform="translate(-500.915 -158.965)" fill="#d90000"/>
    <path id="Path_69" data-name="Path 69" d="M1142.97,304.251s17.867-17.178,22.429-17.161c0,0-14.736.673-22.858,16.245Z" transform="translate(-506.289 -151.644)" fill="#d90000"/>
    <path id="Path_70" data-name="Path 70" d="M1118.94,359.22l.65.085c3.358-26.278,8.253-41.828,13.781-43.733l-.215-.622C1127.294,316.985,1122.365,332.3,1118.94,359.22Z" transform="translate(-496.028 -163.756)" fill="#444053"/>
    <path id="Path_71" data-name="Path 71" d="M1110.2,454.613l.984.079c.209-2.453.367-4.963.475-7.467.938-21.75,2.391-41.726,4.3-56.7l-.565-.706c-1.916,15.007-3.781,35.582-4.72,57.366C1110.567,449.673,1110.409,452.172,1110.2,454.613Z" transform="translate(-492.228 -196.307)" fill="#444053"/>
    <path id="Path_72" data-name="Path 72" d="M976.591,622.018c.17-.073,17.483-7.806,35.452-26.244a142.563,142.563,0,0,0,25.916-36.741c8.309-16.918,13.374-37.707,15.069-57.9l-1.023.48c-3.815,45.332-24.452,76.307-40.861,93.18-17.794,18.274-34.915,25.928-35.085,26Z" transform="translate(-433.91 -244.7)" fill="#444053"/>
    <path id="Path_73" data-name="Path 73" d="M634.837,132.69H91.708a4.838,4.838,0,0,0-4.838,4.838v14.1h552.8v-14.1A4.838,4.838,0,0,0,634.837,132.69Z" transform="translate(-47.326 -84.517)" fill="#3f3d56"/>
    <path id="Path_74" data-name="Path 74" d="M86.87,166.19V483.425a9.756,9.756,0,0,0,9.756,9.756H629.919a9.756,9.756,0,0,0,9.756-9.756V166.19Z" transform="translate(-47.326 -99.082)" fill="#fff"/>
    <circle id="Ellipse_6" data-name="Ellipse 6" cx="2.261" cy="2.261" r="2.261" transform="translate(46.039 55.238)" fill="#fa5959" opacity="0.8"/>
    <circle id="Ellipse_7" data-name="Ellipse 7" cx="2.261" cy="2.261" r="2.261" transform="translate(52.256 55.238)" fill="#fed253" opacity="0.8"/>
    <circle id="Ellipse_8" data-name="Ellipse 8" cx="2.261" cy="2.261" r="2.261" transform="translate(58.474 55.238)" fill="#8ccf4d" opacity="0.8"/>
    <rect id="Rectangle_19" data-name="Rectangle 19" width="444.279" height="195.358" transform="translate(90.93 120.004)" opacity="0.05"/>
    <rect id="Rectangle_20" data-name="Rectangle 20" width="437.496" height="191.051" transform="translate(94.322 121.485)" fill="#3f3d56"/>
    <path id="Path_75" data-name="Path 75" d="M361.3,349.38A43.523,43.523,0,1,0,404.827,392.9,43.523,43.523,0,0,0,361.3,349.38Zm7.806,44.569v20.609H353.724V393.949a12.746,12.746,0,1,1,15.386,0Z" transform="translate(-147.716 -178.725)" fill="#d90000"/>
    <path id="Path_76" data-name="Path 76" d="M361.3,349.38A43.523,43.523,0,1,0,404.827,392.9,43.523,43.523,0,0,0,361.3,349.38Zm7.806,44.569v20.609H353.724V393.949a12.746,12.746,0,1,1,15.386,0Z" transform="translate(-147.716 -178.725)" opacity="0.05"/>
    <path id="Path_77" data-name="Path 77" d="M351.739,327.38A55.959,55.959,0,1,0,407.7,383.339a55.959,55.959,0,0,0-55.959-55.959Zm10.033,57.3v26.493H341.988V384.684a16.392,16.392,0,1,1,19.783,0Z" transform="translate(-138.151 -169.161)" fill="#d90000"/>
    <rect id="Rectangle_21" data-name="Rectangle 21" width="180.877" height="19.218" transform="translate(292.721 206.836)" fill="#fff"/>
    <rect id="Rectangle_22" data-name="Rectangle 22" width="39.002" height="19.218" transform="translate(434.596 241.881)" fill="#d90000"/>
    <path id="Path_78" data-name="Path 78" d="M559.976,426.837H556.7l2.911-2.905a.288.288,0,0,0,0-.4.283.283,0,0,0-.4,0l-2.911,2.911v-3.278a.283.283,0,0,0-.283-.283.288.288,0,0,0-.283.283v3.278l-2.905-2.928a.282.282,0,0,0-.4,0,.288.288,0,0,0,0,.4l2.911,2.905h-3.278a.288.288,0,0,0-.283.283.283.283,0,0,0,.283.283h3.278L552.43,430.3a.288.288,0,0,0,0,.4.294.294,0,0,0,.4,0l2.905-2.911v3.273a.283.283,0,1,0,.565,0v-3.273l2.911,2.911a.294.294,0,0,0,.4,0,.288.288,0,0,0,0-.4l-2.911-2.911h3.273a.274.274,0,1,0,0-.548Z" transform="translate(-249.45 -210.68)" fill="#d90000"/>
    <path id="Path_79" data-name="Path 79" d="M580.976,426.837H577.7l2.911-2.905a.288.288,0,0,0,0-.4.283.283,0,0,0-.4,0l-2.911,2.911v-3.278a.283.283,0,0,0-.283-.283.288.288,0,0,0-.283.283v3.278l-2.905-2.928a.283.283,0,0,0-.4,0,.288.288,0,0,0,0,.4l2.911,2.905h-3.278a.288.288,0,0,0-.283.283.283.283,0,0,0,.283.283h3.278L573.43,430.3a.288.288,0,0,0,0,.4.294.294,0,0,0,.4,0l2.905-2.911v3.273a.283.283,0,1,0,.565,0v-3.273l2.911,2.911a.294.294,0,0,0,.4,0,.288.288,0,0,0,0-.4l-2.911-2.911h3.273a.274.274,0,1,0,0-.548Z" transform="translate(-258.58 -210.68)" fill="#d90000"/>
    <path id="Path_80" data-name="Path 80" d="M601.976,426.837H598.7l2.911-2.905a.288.288,0,0,0,0-.4.283.283,0,0,0-.4,0l-2.911,2.911v-3.278a.283.283,0,0,0-.283-.283.288.288,0,0,0-.283.283v3.278l-2.905-2.928a.283.283,0,0,0-.4,0,.288.288,0,0,0,0,.4l2.911,2.905h-3.278a.288.288,0,0,0-.283.283.283.283,0,0,0,.283.283h3.278L594.43,430.3a.288.288,0,0,0,0,.4.294.294,0,0,0,.4,0l2.905-2.911v3.273a.283.283,0,1,0,.565,0v-3.273l2.911,2.911a.294.294,0,0,0,.4,0,.288.288,0,0,0,0-.4l-2.911-2.911h3.273a.274.274,0,1,0,0-.548Z" transform="translate(-267.71 -210.68)" fill="#d90000"/>
    <path id="Path_81" data-name="Path 81" d="M622.976,426.837H619.7l2.911-2.905a.288.288,0,0,0,0-.4.283.283,0,0,0-.4,0l-2.911,2.911v-3.278a.283.283,0,0,0-.283-.283.288.288,0,0,0-.283.283v3.278l-2.905-2.928a.282.282,0,0,0-.4,0,.288.288,0,0,0,0,.4l2.911,2.905h-3.278a.288.288,0,0,0-.283.283.283.283,0,0,0,.283.283h3.278L615.43,430.3a.288.288,0,0,0,0,.4.294.294,0,0,0,.4,0l2.905-2.911v3.273a.283.283,0,1,0,.565,0v-3.273l2.911,2.911a.294.294,0,0,0,.4,0,.288.288,0,0,0,0-.4l-2.911-2.911h3.273a.274.274,0,1,0,0-.548Z" transform="translate(-276.84 -210.68)" fill="#d90000"/>
    <path id="Path_82" data-name="Path 82" d="M643.976,426.837H640.7l2.911-2.905a.289.289,0,0,0,0-.4.283.283,0,0,0-.4,0l-2.911,2.911v-3.278a.283.283,0,0,0-.283-.283.288.288,0,0,0-.282.283v3.278l-2.905-2.928a.283.283,0,0,0-.4,0,.289.289,0,0,0,0,.4l2.911,2.905h-3.278a.288.288,0,0,0-.283.283.283.283,0,0,0,.283.283h3.278L636.43,430.3a.288.288,0,0,0,0,.4.294.294,0,0,0,.4,0l2.905-2.911v3.273a.283.283,0,1,0,.565,0v-3.273l2.911,2.911a.294.294,0,0,0,.4,0,.288.288,0,0,0,0-.4l-2.911-2.911h3.273a.274.274,0,1,0,0-.548Z" transform="translate(-285.97 -210.68)" fill="#d90000"/>
    <path id="Path_83" data-name="Path 83" d="M664.976,426.837H661.7l2.911-2.905a.288.288,0,0,0,0-.4.283.283,0,0,0-.4,0l-2.911,2.911v-3.278a.283.283,0,0,0-.283-.283.288.288,0,0,0-.283.283v3.278l-2.905-2.928a.283.283,0,0,0-.4,0,.288.288,0,0,0,0,.4l2.911,2.905h-3.278a.288.288,0,0,0-.283.283.283.283,0,0,0,.283.283h3.278L657.43,430.3a.288.288,0,0,0,0,.4.294.294,0,0,0,.4,0l2.905-2.911v3.273a.283.283,0,1,0,.565,0v-3.273l2.911,2.911a.294.294,0,0,0,.4,0,.288.288,0,0,0,0-.4l-2.911-2.911h3.273a.274.274,0,1,0,0-.548Z" transform="translate(-295.1 -210.68)" fill="#d90000"/>
    <path id="Path_84" data-name="Path 84" d="M685.976,426.837H682.7l2.911-2.905a.288.288,0,0,0,0-.4.282.282,0,0,0-.4,0l-2.911,2.911v-3.278a.283.283,0,0,0-.283-.283.288.288,0,0,0-.283.283v3.278l-2.905-2.928a.282.282,0,0,0-.4,0,.288.288,0,0,0,0,.4l2.911,2.905h-3.279a.288.288,0,0,0-.282.283.283.283,0,0,0,.282.283h3.279L678.43,430.3a.288.288,0,0,0,0,.4.294.294,0,0,0,.4,0l2.905-2.911v3.273a.283.283,0,1,0,.565,0v-3.273l2.911,2.911a.294.294,0,0,0,.4,0,.288.288,0,0,0,0-.4l-2.911-2.911h3.273a.274.274,0,1,0,0-.548Z" transform="translate(-304.23 -210.68)" fill="#d90000"/>
    <path id="Path_85" data-name="Path 85" d="M706.976,426.837H703.7l2.911-2.905a.288.288,0,0,0,0-.4.283.283,0,0,0-.4,0l-2.911,2.911v-3.278a.283.283,0,0,0-.283-.283.288.288,0,0,0-.283.283v3.278l-2.905-2.928a.283.283,0,0,0-.4,0,.288.288,0,0,0,0,.4l2.911,2.905h-3.278a.288.288,0,0,0-.283.283.283.283,0,0,0,.283.283h3.278L699.43,430.3a.288.288,0,0,0,0,.4.294.294,0,0,0,.4,0l2.905-2.911v3.273a.283.283,0,1,0,.565,0v-3.273l2.911,2.911a.294.294,0,0,0,.4,0,.288.288,0,0,0,0-.4l-2.911-2.911h3.273a.274.274,0,1,0,0-.548Z" transform="translate(-313.36 -210.68)" fill="#d90000"/>
    <path id="Path_86" data-name="Path 86" d="M727.976,426.837H724.7l2.911-2.905a.288.288,0,0,0,0-.4.283.283,0,0,0-.4,0l-2.911,2.911v-3.278a.283.283,0,0,0-.283-.283.288.288,0,0,0-.283.283v3.278l-2.905-2.928a.283.283,0,0,0-.4,0,.288.288,0,0,0,0,.4l2.911,2.905h-3.278a.288.288,0,0,0-.283.283.283.283,0,0,0,.283.283h3.278L720.43,430.3a.288.288,0,0,0,0,.4.294.294,0,0,0,.4,0l2.905-2.911v3.273a.283.283,0,1,0,.565,0v-3.273l2.911,2.911a.294.294,0,0,0,.4,0,.288.288,0,0,0,0-.4l-2.911-2.911h3.273a.274.274,0,1,0,0-.548Z" transform="translate(-322.49 -210.68)" fill="#d90000"/>
    <path id="Path_87" data-name="Path 87" d="M748.976,426.837H745.7l2.911-2.905a.288.288,0,0,0,0-.4.283.283,0,0,0-.4,0l-2.911,2.911v-3.278a.283.283,0,0,0-.283-.283.288.288,0,0,0-.283.283v3.278l-2.905-2.928a.282.282,0,0,0-.4,0,.288.288,0,0,0,0,.4l2.911,2.905h-3.278a.288.288,0,0,0-.283.283.283.283,0,0,0,.283.283h3.278L741.43,430.3a.288.288,0,0,0,0,.4.294.294,0,0,0,.4,0l2.905-2.911v3.273a.283.283,0,1,0,.565,0v-3.273l2.911,2.911a.294.294,0,0,0,.4,0,.288.288,0,0,0,0-.4l-2.911-2.911h3.273a.274.274,0,1,0,0-.548Z" transform="translate(-331.619 -210.68)" fill="#d90000"/>
    <path id="Path_88" data-name="Path 88" d="M769.976,426.837H766.7l2.911-2.905a.289.289,0,0,0,0-.4.283.283,0,0,0-.4,0l-2.911,2.911v-3.278a.283.283,0,0,0-.283-.283.288.288,0,0,0-.283.283v3.278l-2.905-2.928a.283.283,0,0,0-.4,0,.289.289,0,0,0,0,.4l2.911,2.905h-3.278a.288.288,0,0,0-.283.283.283.283,0,0,0,.283.283h3.278L762.43,430.3a.288.288,0,0,0,0,.4.294.294,0,0,0,.4,0l2.905-2.911v3.273a.283.283,0,1,0,.565,0v-3.273l2.911,2.911a.294.294,0,0,0,.4,0,.289.289,0,0,0,0-.4l-2.911-2.911h3.273a.274.274,0,1,0,0-.548Z" transform="translate(-340.749 -210.68)" fill="#d90000"/>
    <path id="Path_89" data-name="Path 89" d="M871.262,514.934a10.126,10.126,0,0,0-.254-2.029c-.509-1.911-1.656-4.222-3.544-4.8a29.755,29.755,0,0,1-5.619-2.374c-.339-6.059,1.051-12.26-.463-18.133-.565-2.148-1.5-4.205-1.747-6.4-.311-2.736.435-5.652-.656-8.173a8.066,8.066,0,0,0-4.776-4.126,25.452,25.452,0,0,0-6.37-1.13c-2.713-.22-11.5-1.26-14.561,1.164h0a3.2,3.2,0,0,0-.565.565h0a2.244,2.244,0,0,0-.181.294l-.028.045a2.3,2.3,0,0,0-.153.367h0a2.849,2.849,0,0,0-.1.424v1.018c.04.509.113,1.017.113,1.52a3.272,3.272,0,0,1-.068.746,5.224,5.224,0,0,1-.938,1.831h0l-.1.147c-.062.09-.124.175-.181.266s-.1.158-.147.237-.09.13-.13.2a2.753,2.753,0,0,0-.147.288c0,.056-.062.107-.085.164a2.8,2.8,0,0,0-.17.475,3.158,3.158,0,0,0-.034,1.5,5.6,5.6,0,0,0,.774,1.78c.141.232.294.458.452.684l.4.537a12.2,12.2,0,0,0-.119,1.583,11.694,11.694,0,0,0,4.464,9.19,34.617,34.617,0,0,1-.072,7.174c-.051.5-.113,1-.181,1.5s-.119.825-.187,1.238a5.738,5.738,0,0,1-2.47-.187,11.637,11.637,0,0,0-1.13-.435c-1.645-.413-3.324,1.227-4.952.729a.662.662,0,0,1-.073.226,2.214,2.214,0,0,0-1.13-.333,4.124,4.124,0,0,1-2.453-1.407l-2.154-2.029a2.382,2.382,0,0,1-.373-.418,2.935,2.935,0,0,1-.26-.7,8.01,8.01,0,0,0-2.086-2.99,1.414,1.414,0,0,0-.616-.447.95.95,0,0,0-.283,0,2.464,2.464,0,0,0-.187-.226,5.34,5.34,0,0,0-.469-.475c-1.029-.95-1.13-1.764-2.024-2.826A27.159,27.159,0,0,1,813.116,488c-.073-.593-.175-1.2-.3-1.82a23.417,23.417,0,0,0-1.238-4.126l-1.13-2.5-.13.13c-.82-1.221-1.7-1.888-2.481-1.73-1.317.271-1.967,2.826-1.758,6.167l.452,3.391a1.051,1.051,0,0,0,.062.254,6.271,6.271,0,0,0-.124,1.221c0,.475.441.825.673,1.249a3.532,3.532,0,0,1,.565,1.927c-.028.243-.1.475-.113.712a2.739,2.739,0,0,0,.531,1.47l2.826,4.748.565.995.034.045a2.413,2.413,0,0,0,.757.87,10.358,10.358,0,0,0,.933,3.431c.1.215.2.418.317.622a19.991,19.991,0,0,0,2.668,3.465l1.345,1.509c1.328,1.481,2.657,2.968,4.1,4.335a5.489,5.489,0,0,0,1.831,1.283,2.074,2.074,0,0,0,2.057-.3v2.1a1.181,1.181,0,0,1,.893,1.86,46.615,46.615,0,0,1-4.183,8.852,18.847,18.847,0,0,1,3.5,2.673,15.772,15.772,0,0,1,1.826,2.47c.051.418.09.831.113,1.244.418,6.738-2.187,13.424-4.522,19.846a15.465,15.465,0,0,0-1.351,5.618,11.024,11.024,0,0,0-1.266.91,8.378,8.378,0,0,1,.232,3.584,6.344,6.344,0,0,1-.469,2.261,15.9,15.9,0,0,1-.814,1.453c-1.464,2.583-1.786,5.652-2.08,8.6-.175,1.781.514,3.957-.294,5.551a22.708,22.708,0,0,0-2.826,8.693,8.7,8.7,0,0,1-.26,2.029c-.175.565-.486,1.046-.644,1.6a6.839,6.839,0,0,0-.113,2.261,21.639,21.639,0,0,1-1.187,7.976c-.707,2.018-1.487,4.177-.933,6.252a8.812,8.812,0,0,0-2.391,5.251,8.28,8.28,0,0,1-.181,1.5,7.286,7.286,0,0,1-.678,1.441,12.617,12.617,0,0,0-1.537,6.783,18.868,18.868,0,0,0-3.047,7.959c-.5,2.82-.724,5.692-1.368,8.479-.859,3.685-2.414,7.41-2.719,11.186-1.831,1.17-2.623,3.437-2.973,5.579s-.407,4.392-1.306,6.37c-.464,1.029-1.13,1.95-1.571,3a13.784,13.784,0,0,0-.678,2.583,10.079,10.079,0,0,0-.175,4.239,6.392,6.392,0,0,1-1.656,1.261c.09-.351.164-.7.226-1.057-1.458,1.323-4.1.859-5.268,2.448a2.386,2.386,0,0,0,.565,3.273,4.524,4.524,0,0,0,1.17.5c2.826.9,5.732,1.814,8.637,1.334a2.576,2.576,0,0,0,.978-.311,3.147,3.147,0,0,0,.91-1.051q.653-1.034,1.3-2.069a26.829,26.829,0,0,0,3.171.74c.107.9.187,1.809.226,2.713.565.113,1.323.147,1.588-.379a1.374,1.374,0,0,0,.1-.627c0-.4.057-.933.09-1.475h.113a10.739,10.739,0,0,0,5-1.012c-.6-5.008,1.391-9.9,3.12-14.64,1.826-4.985,3.392-10.061,4.969-15.137,1.13-3.572,2.38-7.032,3.487-10.61q2.091-6.783,4.2-13.566c.611-1.99,1.227-3.957,1.927-5.935a92.458,92.458,0,0,1,5.24-11.661c.565-1.068,1.13-2.125,1.594-3.233.565-1.351.967-2.764,1.419-4.16a64.441,64.441,0,0,1,3.55-8.354c.04-.073.068-.141.107-.209.458,1.871.916,3.77,1.221,5.652a21.48,21.48,0,0,1,.1,6.986,23.039,23.039,0,0,0-.724,4.737c.085,2.21,1.266,4.217,1.848,6.348a24.154,24.154,0,0,1,.633,4.861c.158,2.543,1.537,5.4.565,7.755-3.024,7.467-1.56,15.9-3.284,23.74-.887,4.024-3.606,7.806-3.391,11.921q.226,4.381.769,8.739a8.315,8.315,0,0,0,.707,2.651,9.725,9.725,0,0,0,.774,1.266c-.249.1-.458.35-.639.887a3.487,3.487,0,0,0,1.255,3.957,5.5,5.5,0,0,0,1.633.565,8.607,8.607,0,0,0,2.363.328,5.516,5.516,0,0,0,.74-.091,26.891,26.891,0,0,0,2.674.961,5.789,5.789,0,0,0,.073.7.864.864,0,0,0,.294.639.881.881,0,0,0,.452.079h3.069v-.769a2.526,2.526,0,0,0,1.95-.633,3.02,3.02,0,0,0,.565-1.176q1.255-4.256,2.493-8.518a27.235,27.235,0,0,0,1.215-9.722c-1.091-10.417,1.306-20.869.526-31.314a75.009,75.009,0,0,1,.961-18.789c.254-1.4.565-2.826.678-4.222.249-2.634-.056-5.3.13-7.913.062-.916.187-1.826.3-2.736a131.382,131.382,0,0,0,1.215-17.042,53.665,53.665,0,0,0-.35-5.652,3.227,3.227,0,0,0,1.543-.9,3.845,3.845,0,0,0,.367-2.414,17.5,17.5,0,0,1,1.521-5.777,68.59,68.59,0,0,0,2.137-7.947,27.742,27.742,0,0,0,.95-6.642q0-.339-.034-.678a1.75,1.75,0,0,0,.52-.565,3.284,3.284,0,0,0,.271-1.046c.2-1.441.413-2.888.616-4.335q.226-1.554.447-3.1l1.8-12.543c.153-1.091.311-2.176.464-3.261l.469-3.245c.051-.384.107-.769.147-1.13C872.726,520.631,871.409,517.556,871.262,514.934Zm-15,46.96a10.331,10.331,0,0,1-1.13-4.912h-.062a2.521,2.521,0,0,0-.073-1.594c-.175-.413-.48-.763-.667-1.176a4.311,4.311,0,0,1-.305-1.583,43.149,43.149,0,0,1,.808-10.254c.073-.4.153-.8.226-1.193a2.953,2.953,0,0,0,.644-.5,4.585,4.585,0,0,0,.729-1.13c.639-1.283,1.221-2.589,1.758-3.917.175-.43.43-.927.865-1.034-.091,3.307.249,6.681-1.1,9.666a6.109,6.109,0,0,0-.565,1.526c-.124.842.226,1.7.1,2.532-.062.435-.249.837-.322,1.266a1.238,1.238,0,0,0,.328,1.2.983.983,0,0,0,.243.124c-.034.226-.062.458-.085.678-.045.464-.068.9-.1,1.17a36.435,36.435,0,0,0-.153,4.16c0,1.5.057,3,.034,4.522a3.068,3.068,0,0,1-.215,1.283,2.229,2.229,0,0,1-.43.565A14.688,14.688,0,0,0,856.267,561.894Z" transform="translate(-351.038 -230.016)" fill="url(#linear-gradient)"/>
    <ellipse id="Ellipse_9" data-name="Ellipse 9" cx="3.188" cy="9.027" rx="3.188" ry="9.027" transform="matrix(0.98, -0.201, 0.201, 0.98, 453.866, 249.246)" fill="#fbbebe"/>
    <path id="Path_90" data-name="Path 90" d="M878.265,838.091a3.422,3.422,0,0,0,1.255,3.917,5.584,5.584,0,0,0,1.622.565,8.564,8.564,0,0,0,2.357.322c.978-.045,1.916-.43,2.894-.565a.453.453,0,0,1,.334.045.481.481,0,0,1,.124.4,14.9,14.9,0,0,0,.124,1.662.854.854,0,0,0,.294.639.882.882,0,0,0,.452.079h3.063a29.878,29.878,0,0,0-.876-7.993,1.782,1.782,0,0,0-.226-.565,1.87,1.87,0,0,0-.978-.565,5.464,5.464,0,0,0-2.368-.413,6.94,6.94,0,0,0-2.657,1.3,4.048,4.048,0,0,1-3.013.729C879.644,837.373,878.79,836.519,878.265,838.091Z" transform="translate(-391.316 -390.118)" fill="#3f3d56"/>
    <path id="Path_91" data-name="Path 91" d="M795.9,834.716a8.478,8.478,0,0,1-3.092,2.1l-.52.249a.36.36,0,0,0-.175.141.305.305,0,0,0,.056.255,3.657,3.657,0,0,0,4.149,1.509,2.2,2.2,0,0,0,.91-.475,2.984,2.984,0,0,0,.7-1.82,3.726,3.726,0,0,0-.085-2.086C797.06,832.823,796.772,833.625,795.9,834.716Z" transform="translate(-353.934 -389.225)" fill="#fbbebe"/>
    <path id="Path_92" data-name="Path 92" d="M804.985,841.931a1.373,1.373,0,0,1-.1.628c-.266.52-1.006.492-1.583.379a38.04,38.04,0,0,0-.7-5.709c-1.1-.051-1.888.989-2.476,1.922l-1.515,2.4a3.131,3.131,0,0,1-.9,1.051,2.678,2.678,0,0,1-.978.311c-2.894.48-5.816-.43-8.609-1.334a4.555,4.555,0,0,1-1.17-.5,2.391,2.391,0,0,1-.565-3.267c1.17-1.583,3.8-1.13,5.257-2.442a13.159,13.159,0,0,1-.746,2.7c1.95-.294,3.261-2.08,4.833-3.273a2.974,2.974,0,0,1,1.379-.656,3.031,3.031,0,0,1,1.13.119,13.261,13.261,0,0,1,4.974,2.448A5.363,5.363,0,0,1,805,838.562,13.721,13.721,0,0,1,804.985,841.931Z" transform="translate(-351.272 -389.476)" fill="#3f3d56"/>
    <circle id="Ellipse_10" data-name="Ellipse 10" cx="11.678" cy="11.678" r="11.678" transform="translate(480.918 242.604)" fill="#fbbebe"/>
    <path id="Path_93" data-name="Path 93" d="M919.776,616.479a27.692,27.692,0,0,1-.944,6.608A68.187,68.187,0,0,1,916.7,631c-.673,1.882-1.515,3.77-1.509,5.765a3.835,3.835,0,0,1-.373,2.408,3.519,3.519,0,0,1-1.651.944,2.063,2.063,0,0,0-1.391,1.238,8.733,8.733,0,0,1-1.176-2.589q-1.521-4.658-2.826-9.366a1.216,1.216,0,0,1,.079-1.13,1.4,1.4,0,0,1,.492-.277,5.088,5.088,0,0,0,1.566-1.006,2.286,2.286,0,0,0,.52-.673,3.046,3.046,0,0,0,.22-1.277c0-1.5,0-2.99-.04-4.488a37.495,37.495,0,0,1,.158-4.143c0-.271.051-.707.1-1.17.085-.887.254-1.916.735-2.261.718-.48,2.866.164,3.68.277,1.4.192,2.826.418,4.194.684A11.192,11.192,0,0,1,919.776,616.479Z" transform="translate(-404.175 -293.249)" fill="#3f3d56"/>
    <path id="Path_94" data-name="Path 94" d="M835.834,511.462c-.452.9-1.537,1.34-2.374,1.91l-2.866,1.967a1.911,1.911,0,0,1-1.419.486,1.864,1.864,0,0,1-1.057-.989.215.215,0,0,0,0-.045l-.594-.995L824.7,509.06a2.7,2.7,0,0,1-.526-1.458c0-.243.085-.469.107-.712a3.42,3.42,0,0,0-.565-1.922c-.226-.424-.678-.774-.667-1.249a4.521,4.521,0,0,1,.316-1.826,3.7,3.7,0,0,1,1.238-1.323c.266-.192.537-.373.82-.565a1.617,1.617,0,0,1,.492-.226c.469-.1.933.294,1.407.311,2.04,1.368,2.826,3.957,4.432,5.822.9,1.063.995,1.877,2.018,2.826.164.147.322.305.475.469a3.278,3.278,0,0,1,.509.735C834.94,510.427,836.065,511,835.834,511.462Z" transform="translate(-367.385 -244.106)" fill="#3f3d56"/>
    <path id="Path_95" data-name="Path 95" d="M877.081,511.39a10.523,10.523,0,0,1,1.255,5.692,3.553,3.553,0,0,1-.492,1.5c-.814,1.249-2.521,1.475-4.008,1.549a2.363,2.363,0,0,0-1.741.565,1.582,1.582,0,0,0,.107,1.933,4.364,4.364,0,0,0,1.729,1.13,15.314,15.314,0,0,0,7.444,1.651c1.187-.113,2.34-.458,3.521-.633a37.005,37.005,0,0,1,3.878-.215c1.537-.057,3.069-.209,4.6-.362l4.058-.4a.9.9,0,0,0,.6-.22c.3-.35-.085-.865-.458-1.13-2.154-1.594-4.9-2.691-6.122-5.087a29.953,29.953,0,0,1-1.159-3.7,31.092,31.092,0,0,1-1.345-3.567,23.632,23.632,0,0,1-.187-3.29,4.415,4.415,0,0,0-1.131-3.007,4.712,4.712,0,0,0-3.075-.989,9.954,9.954,0,0,0-7.495,2.431c-.514.514-.955,1.13-1.487,1.594s-1.255.6-.9,1.21,1.04.989,1.413,1.526a13.02,13.02,0,0,1,.989,1.82Z" transform="translate(-388.589 -245.424)" fill="#fbbebe"/>
    <path id="Path_96" data-name="Path 96" d="M890.69,535.914a64.219,64.219,0,0,1-3.459,12.735,47.971,47.971,0,0,0-2.035,5.709c-.435,1.752-.35,3.629-.752,5.387-.5,2.187-.995,4.381-1.4,6.585a43.18,43.18,0,0,0-.8,10.231,4.274,4.274,0,0,0,.305,1.577c.187.407.486.757.661,1.176a2.826,2.826,0,0,1-.158,2.261,6.547,6.547,0,0,1-1.164,1.764c-5.268,1.571-10.9,1.057-16.392,1.39-5.059.305-10.174,1.345-15.16.48-.565-2.261.379-4.629,1.187-6.834,2.346-6.4,4.94-13.074,4.522-19.783a20.506,20.506,0,0,0-.266-2.334c-.82-4.754.073-9.677,1.5-14.284a24.513,24.513,0,0,0,.644-8.919,16.286,16.286,0,0,1-.04-2.922,5.138,5.138,0,0,1,1.063-2.73c0-.04.051-.079.079-.119a.776.776,0,0,1,.424,0h0a.363.363,0,0,0,.283,0l.062-.04a.141.141,0,0,1,.164,0c.13.079.2.35.486.4a11.268,11.268,0,0,0,1.26.119,6.785,6.785,0,0,1,1.5.215h.068a4.416,4.416,0,0,0,2.193-.187,5.825,5.825,0,0,0,1.345-.52c.124-.136.9-.26,1.063-.356.514-.311.4-1.769.509-2.368a6.512,6.512,0,0,1,.424-1.752,2.985,2.985,0,0,1,2.419-1.407,12.889,12.889,0,0,1,2.9.26c2.108.3,4.268.249,6.336.735,1.04.243,2.176.61,3.131.136.26.062.3.288.3.565a3.62,3.62,0,0,1-.158.774c-.362,1.56.865,3,2,4.126a6.4,6.4,0,0,0,1.667,1.328c.565.26,1.13.367,1.7.65a3.086,3.086,0,0,1,1.13,1.034,4.316,4.316,0,0,1,.644,1.645A9.837,9.837,0,0,1,890.69,535.914Z" transform="translate(-379.176 -253.505)" fill="#3f3d56"/>
    <path id="Path_97" data-name="Path 97" d="M894.782,540.4a64.21,64.21,0,0,1-3.459,12.735,48.022,48.022,0,0,0-2.035,5.709c-.435,1.752-.35,3.629-.752,5.387-.5,2.188-.995,4.381-1.4,6.585-.119.068-.243.13-.367.187a8.675,8.675,0,0,1-2.216.712,13.563,13.563,0,0,1-4.138-.136l-8.066-1.079c-3.222-.435-6.653-.961-9.044-3.143a19.292,19.292,0,0,1-3.154-4.307,20.568,20.568,0,0,0-.266-2.334c-.82-4.754.073-9.677,1.5-14.284a24.51,24.51,0,0,0,.644-8.919,16.285,16.285,0,0,1-.039-2.922,5.136,5.136,0,0,1,1.063-2.73,4.048,4.048,0,0,1,.5-.113h0a2.5,2.5,0,0,1,.345-.045h.164a2.47,2.47,0,0,1,.565.068,10.245,10.245,0,0,1,1.13.435h.068a4.33,4.33,0,0,0,1.5.215c.746,0,1.515-.119,2.261-.17a4.172,4.172,0,0,1,2.679.48,16.053,16.053,0,0,1,1.492,1.362,6.408,6.408,0,0,0,1.882,1.023A20,20,0,0,0,890.7,534.8a2.942,2.942,0,0,1,1.509-.384,2.825,2.825,0,0,1,1.085.464c.339.2.673.39,1.017.565a4.318,4.318,0,0,1,.644,1.645A9.836,9.836,0,0,1,894.782,540.4Z" transform="translate(-383.268 -257.991)" opacity="0.1"/>
    <path id="Path_98" data-name="Path 98" d="M895.95,535.823A30.169,30.169,0,0,1,889.506,533a2.884,2.884,0,0,0-1.085-.464,3.034,3.034,0,0,0-1.515.384,19.993,19.993,0,0,1-15.041.317,6.538,6.538,0,0,1-1.882-1.023,16.913,16.913,0,0,0-1.492-1.362c-1.86-1.2-4.432.209-6.512-.565a11.527,11.527,0,0,0-1.13-.435c-1.645-.413-3.318,1.227-4.935.729a27.513,27.513,0,0,0-1.328,5.042,54.945,54.945,0,0,0-.367,5.946c0,1.193-.057,2.385,0,3.578a1.174,1.174,0,0,1,.893,1.854,46.333,46.333,0,0,1-4.172,8.823,19.177,19.177,0,0,1,3.493,2.668c1.978,2.092,2.951,5.025,5.087,6.958,2.408,2.176,5.839,2.707,9.044,3.137l8.066,1.079a13.784,13.784,0,0,0,4.143.141,8.713,8.713,0,0,0,2.21-.718,3.955,3.955,0,0,0,1.232-.814,4.527,4.527,0,0,0,.729-1.13c.639-1.277,1.221-2.583,1.758-3.906.186-.469.469-1.017.978-1.057,3-2.7,5.822-5.471,8.818-8.173a19.542,19.542,0,0,0,3.216-3.391c1.487-2.2.136-5.313,0-7.97a10.058,10.058,0,0,0-.254-2.018C898.974,538.7,897.832,536.394,895.95,535.823Z" transform="translate(-379.513 -257.156)" fill="#d90000"/>
    <path id="Path_99" data-name="Path 99" d="M839.732,518.646c-.452.9-1.538,1.34-2.374,1.911l-2.866,1.967a1.911,1.911,0,0,1-1.419.486,1.866,1.866,0,0,1-1.057-.989v-.407a3.8,3.8,0,0,1,.181-1.351,4.211,4.211,0,0,1,1.266-1.628,10.368,10.368,0,0,1,3.714-2.261,1.272,1.272,0,0,1,.678-.068.9.9,0,0,1,.249.107,3.273,3.273,0,0,1,.509.735C838.839,517.611,839.964,518.182,839.732,518.646Z" transform="translate(-371.284 -251.29)" opacity="0.1"/>
    <path id="Path_100" data-name="Path 100" d="M847.02,524.885a4.117,4.117,0,0,1-2.448-1.4l-2.142-1.99a2,2,0,0,1-.373-.418,2.929,2.929,0,0,1-.26-.7,7.977,7.977,0,0,0-2.08-2.984,1.357,1.357,0,0,0-.616-.441,1.238,1.238,0,0,0-.684.068,10.34,10.34,0,0,0-3.714,2.261,4.223,4.223,0,0,0-1.266,1.628,3.76,3.76,0,0,0-.181,1.351,10.382,10.382,0,0,0,.984,4.318c.1.209.2.418.317.622a19.578,19.578,0,0,0,2.657,3.454l1.345,1.5c1.323,1.481,2.645,2.962,4.081,4.324a5.389,5.389,0,0,0,1.831,1.277,2.046,2.046,0,0,0,2.1-.339,3.039,3.039,0,0,0,.6-1.074,21.137,21.137,0,0,0,1.747-7.048,26.6,26.6,0,0,0-.124-2.922C848.71,525.348,847.981,524.947,847.02,524.885Z" transform="translate(-371.823 -251.571)" fill="#d90000"/>
    <path id="Path_101" data-name="Path 101" d="M866.021,650.966a130.64,130.64,0,0,1-1.21,17c-.113.91-.237,1.82-.3,2.73-.187,2.64.119,5.291-.13,7.913-.13,1.419-.424,2.826-.673,4.211a74.87,74.87,0,0,0-.961,18.738c.78,10.417-1.611,20.84-.526,31.229a25.241,25.241,0,0,1-.333,6.042,25.611,25.611,0,0,1-.876,3.651q-1.238,4.245-2.487,8.479a2.94,2.94,0,0,1-.565,1.176,2.679,2.679,0,0,1-2.12.627c-3.261-.1-6.331-1.509-9.293-2.883a3.237,3.237,0,0,1-.933-.565c-.616-.639-.565-1.645-.837-2.487a23.664,23.664,0,0,0-1.424-2.5,8.156,8.156,0,0,1-.616-2.572q-.565-4.341-.769-8.716c-.215-4.1,2.5-7.88,3.391-11.87,1.7-7.846.26-16.256,3.273-23.7.95-2.351-.429-5.2-.565-7.733a24.513,24.513,0,0,0-.633-4.85c-.565-2.125-1.758-4.126-1.843-6.331a23.262,23.262,0,0,1,.718-4.72,21.212,21.212,0,0,0-.1-6.969c-.3-1.9-.757-3.8-1.215-5.652l-.1.209a63.872,63.872,0,0,0-3.544,8.337c-.452,1.385-.848,2.8-1.413,4.143-.463,1.13-1.034,2.165-1.594,3.228a92.712,92.712,0,0,0-5.228,11.616c-.7,1.956-1.317,3.957-1.927,5.918L827,708.23c-1.13,3.567-2.368,7.015-3.476,10.576-1.566,5.087-3.131,10.129-4.952,15.1-1.7,4.72-3.714,9.609-3.109,14.594a10.739,10.739,0,0,1-4.991,1.012A29.225,29.225,0,0,1,802,747.458a6.59,6.59,0,0,1-2.928-1.741c-1.255-1.532-.944-3.776-.565-5.726a13.835,13.835,0,0,1,.678-2.578c.43-1.04,1.13-1.961,1.572-2.99.887-1.973.944-4.205,1.294-6.348s1.13-4.4,2.962-5.568c.311-3.764,1.86-7.478,2.713-11.158.645-2.787.859-5.652,1.368-8.479a18.621,18.621,0,0,1,3.035-7.942,12.588,12.588,0,0,1,1.537-6.783,7.413,7.413,0,0,0,.673-1.441,8.273,8.273,0,0,0,.181-1.492,8.823,8.823,0,0,1,2.385-5.24c-.565-2.063.22-4.217.927-6.218a21.6,21.6,0,0,0,1.187-7.953,6.971,6.971,0,0,1,.108-2.261c.158-.565.469-1.046.65-1.588a9.043,9.043,0,0,0,.254-2.029,23.468,23.468,0,0,1,2.826-8.671c.814-1.594.124-3.759.294-5.534.294-2.95.616-6,2.08-8.575.271-.486.565-.95.808-1.453a6.29,6.29,0,0,0,.469-2.261,8.326,8.326,0,0,0-.232-3.572c3.024-2.515,7.15-3.222,11.084-3.391s7.913.187,11.763-.65c1.13-.254,2.261-.6,3.453-.774a22.344,22.344,0,0,1,8.128.831,9.682,9.682,0,0,0,1.13,4.9A52.607,52.607,0,0,1,866.021,650.966Z" transform="translate(-356.57 -298.518)" fill="#33313f"/>
    <path id="Path_102" data-name="Path 102" d="M888.651,673.29,882.157,687.9c-.3-1.9-.757-3.8-1.215-5.652l-.1.209v-.305l3.538-7.783Z" transform="translate(-392.512 -319.548)" opacity="0.1"/>
    <path id="Path_103" data-name="Path 103" d="M922.2,616.479a2.442,2.442,0,0,1-1.289.48,6.272,6.272,0,0,1-2.114-.288l-5.087-1.272a2.5,2.5,0,0,1-.463-.164c.085-.887.254-1.916.735-2.261.718-.48,2.866.164,3.68.277,1.4.192,2.826.418,4.194.684a11.2,11.2,0,0,1,.345,2.544Z" transform="translate(-406.603 -293.249)" opacity="0.1"/>
    <path id="Path_104" data-name="Path 104" d="M926.1,558.422c.107.469.26.933.35,1.407a10.738,10.738,0,0,1-.119,3.5l-.463,3.233-.464,3.25-1.792,12.509-.441,3.1-.622,4.324a3.108,3.108,0,0,1-.271,1.04,2.165,2.165,0,0,1-1.769,1.046,6.41,6.41,0,0,1-2.114-.288l-5.087-1.277a1.6,1.6,0,0,1-.622-.254,1.226,1.226,0,0,1-.328-1.193c.073-.43.26-.831.322-1.26.124-.837-.226-1.7-.1-2.527a6.293,6.293,0,0,1,.565-1.521c1.7-3.747.712-8.122,1.289-12.192a18.482,18.482,0,0,1,3.923-8.727,25.05,25.05,0,0,1,4.33-4.251,8.718,8.718,0,0,1,2.436-1.7C926.144,556.427,925.93,557.71,926.1,558.422Z" transform="translate(-406.197 -268.824)" fill="#d90000"/>
    <path id="Path_105" data-name="Path 105" d="M864.534,471.463c-.373,1.187.209,2.493-.056,3.7-.288,1.334-1.543,2.261-1.9,3.6-.565,2.04,1.164,3.9,2.431,5.6,4.692,6.3,4.075,15.013,2.47,22.694a117.187,117.187,0,0,1-5.342,18.088,13.859,13.859,0,0,1-2.877,5.048c2.6-.746,5.364-1.5,7.97-.774,3.3.916,6.15,4.121,9.5,3.391,2.012-.447,3.425-2.233,5.234-3.222,3.391-1.826,7.478-.678,11.26-.09a4.419,4.419,0,0,0,2.459-.124A4.087,4.087,0,0,0,897.171,528a13.939,13.939,0,0,0,2.905-7.518,9.643,9.643,0,0,0-2.775-7.422,15.874,15.874,0,0,1-2.38-2.261,7.022,7.022,0,0,1-.933-3.425c-.446-6.218,1.068-12.565-.492-18.579-.565-2.142-1.487-4.194-1.735-6.387-.311-2.73.43-5.652-.656-8.151a7.994,7.994,0,0,0-4.765-4.115,26.1,26.1,0,0,0-6.353-1.13C876.89,468.75,865.828,467.422,864.534,471.463Z" transform="translate(-383.13 -230.555)" fill="#33313f"/>
    <g id="Group_5" data-name="Group 5" transform="translate(476.13 239.614)" opacity="0.1">
      <path id="Path_106" data-name="Path 106" d="M869.713,513.52a116.942,116.942,0,0,1-5.313,18.014c.39-.774.718-1.588,1.029-2.4a116.582,116.582,0,0,0,5.342-18.088c1.611-7.687,2.227-16.392-2.464-22.694-1.13-1.5-2.583-3.131-2.532-4.895a6.026,6.026,0,0,0-.961,1.775c-.565,2.041,1.164,3.9,2.431,5.6C871.935,497.122,871.318,505.838,869.713,513.52Z" transform="translate(-861.495 -476.632)"/>
      <path id="Path_107" data-name="Path 107" d="M868.5,475.806a5.5,5.5,0,0,0,.995-1.9,9.685,9.685,0,0,0-.068-2.521,2.718,2.718,0,0,0-.938,1.294C868.151,473.675,868.535,474.76,868.5,475.806Z" transform="translate(-863.211 -471.38)"/>
      <path id="Path_108" data-name="Path 108" d="M898.233,567.764a4.069,4.069,0,0,1-1.492,1.368,4.319,4.319,0,0,1-2.459.124c-3.781-.565-7.913-1.73-11.26.1-1.814.983-3.222,2.77-5.24,3.222-3.34.746-6.189-2.459-9.49-3.391-2.34-.65-4.8-.113-7.162.565a9.879,9.879,0,0,1-1.871,2.7c2.6-.746,5.364-1.5,7.97-.774,3.3.916,6.15,4.121,9.5,3.391,2.012-.447,3.425-2.233,5.234-3.222,3.391-1.826,7.478-.678,11.26-.09a4.421,4.421,0,0,0,2.459-.124,4.088,4.088,0,0,0,1.492-1.373,15.2,15.2,0,0,0,2.34-4.477A16.428,16.428,0,0,1,898.233,567.764Z" transform="translate(-859.26 -512.421)"/>
    </g>
  </g>
</svg>
